<svg width="69" height="65" viewBox="0 0 69 65" fill="none" xmlns="http://www.w3.org/2000/svg">
<g filter="url(#filter0_d)">
<ellipse cx="30.6726" cy="28.5" rx="27.3269" ry="25.5" fill="white"/>
<path d="M30.6726 55.5C46.4939 55.5 59.4995 43.5078 59.4995 28.5C59.4995 13.4922 46.4939 1.5 30.6726 1.5C14.8514 1.5 1.8457 13.4922 1.8457 28.5C1.8457 43.5078 14.8514 55.5 30.6726 55.5Z" stroke="white" stroke-width="3"/>
</g>
<path d="M31.0075 32.9209C31.5003 32.9209 31.9184 32.5324 31.9184 32.0576V16.5612L31.8587 14.4748L33.1878 15.7986L35.7266 18.3453C35.8909 18.518 36.1298 18.6043 36.3538 18.6043C36.8168 18.6043 37.1901 18.2734 37.1901 17.8273C37.1901 17.5827 37.0856 17.4101 36.9213 17.2374L31.6646 12.2878C31.4406 12.0719 31.2464 12 31.0075 12C30.7685 12 30.5744 12.0719 30.3504 12.2878L25.0936 17.2374C24.9144 17.4101 24.8099 17.5827 24.8099 17.8273C24.8099 18.2734 25.1683 18.6043 25.6462 18.6043C25.8702 18.6043 26.1241 18.518 26.2883 18.3453L28.8271 15.7986L30.1562 14.4748L30.0965 16.5612V32.0576C30.0965 32.5324 30.5146 32.9209 31.0075 32.9209ZM22.4055 44H39.5945C42.5066 44 44 42.5611 44 39.7986V25.0935C44 22.3165 42.5066 20.8777 39.5945 20.8777H35.3383V22.6619H39.5497C41.2074 22.6619 42.1482 23.5252 42.1482 25.1799V39.6978C42.1482 41.3669 41.2074 42.2158 39.5497 42.2158H22.4354C20.7628 42.2158 19.8518 41.3669 19.8518 39.6978V25.1799C19.8518 23.5252 20.7628 22.6619 22.4354 22.6619H26.6766V20.8777H22.4055C19.4934 20.8777 18 22.3022 18 25.0935V39.7986C18 42.5755 19.4934 44 22.4055 44Z" fill="#325370"/>
<defs>
<filter id="filter0_d" x="0.345703" y="0" width="68.6538" height="65" filterUnits="userSpaceOnUse" color-interpolation-filters="sRGB">
<feFlood flood-opacity="0" result="BackgroundImageFix"/>
<feColorMatrix in="SourceAlpha" type="matrix" values="0 0 0 0 0 0 0 0 0 0 0 0 0 0 0 0 0 0 127 0"/>
<feOffset dx="4" dy="4"/>
<feGaussianBlur stdDeviation="2"/>
<feColorMatrix type="matrix" values="0 0 0 0 0 0 0 0 0 0 0 0 0 0 0 0 0 0 0.06 0"/>
<feBlend mode="normal" in2="BackgroundImageFix" result="effect1_dropShadow"/>
<feBlend mode="normal" in="SourceGraphic" in2="effect1_dropShadow" result="shape"/>
</filter>
</defs>
</svg>
